<svg width="418" height="107" viewBox="0 0 418 107" fill="none" xmlns="http://www.w3.org/2000/svg">
<path d="M111 10.5V97.5H131V28L149 28.5C153 28.5 157.672 30.5 159 36C161.8 47.6 154.167 52.8333 150 54H134.5V71H153C161 70.5 177.6 64.3 180 43.5C182.4 22.7 163.333 13.1667 153.5 11L111 10.5Z" fill="#95C83C"/>
<path d="M131 54H134.5V71H131V54Z" fill="#95C83C"/>
<path d="M339 11V98H359.5V81.5L373 65L394 98H417.5L386 49.5L416 11H393L358.5 54.5V11H339Z" fill="#95C83C"/>
<path d="M281 100C307 98 319.833 76.8333 323 66.5H302C299.5 71 291.064 86.8936 271 82C251.5 77.2439 250 59.5 250 53C250 45.9289 255.5 27.1184 276 25.5C291.2 24.3 299.667 36.3333 302 42.5H323C317 24.1 303.167 15.1666 297 13C287.667 8.99998 264.6 4.19992 247 19C226.53 36.213 229.431 56.5149 230.495 63.9668L230.5 64C231.643 72 246.5 102.654 281 100Z" fill="#95C83C"/>
<path d="M214.5 11H194.5V98H214.5V11Z" fill="#95C83C"/>
<path d="M89.5 103.5L106.5 94L63.5 69L47 79L89.5 103.5Z" fill="#39BCAC"/>
<path d="M46.5 54.5L20.5 39L20 38L21.5 37.5L46.5 52.5L71.5 37.5L73 38L72.6947 39L46.5 54.5Z" fill="#39BCAC"/>
<path d="M46.5 107L66.5 95.5L20.5 68.5V38L46.5 23L72.5 38V68.5L93 80V26.5L46.5 0L0 26.5V80L46.5 107Z" fill="#39BCAC"/>
<path d="M27.5 63.5V61L25.5 60V53.5L27.5 54.5V52L23.5 50V61L27.5 63.5Z" fill="#39BCAC"/>
</svg>
